<svg width="24" height="24" viewBox="0 0 24 24" fill="none" xmlns="http://www.w3.org/2000/svg">
<path fill-rule="evenodd" clip-rule="evenodd" d="M17.1944 0C21.2645 0 24 2.8509 24 7.09299V16.895C24 21.1371 21.2645 23.988 17.1944 23.988H6.79359C2.72946 23.988 0 21.1371 0 16.895V7.09299C0 2.8509 2.72946 0 6.79359 0H17.1944ZM17.1944 1.80361H6.79359C3.76233 1.80361 1.80361 3.88016 1.80361 7.09299V16.895C1.80361 20.109 3.76233 22.1844 6.79359 22.1844H17.1944C20.2329 22.1844 22.1964 20.109 22.1964 16.895V7.09299C22.1964 3.88016 20.2329 1.80361 17.1944 1.80361ZM17.9627 12.1436C17.9703 12.1498 17.9778 12.1559 17.9935 12.1706L18.0167 12.1927C18.0214 12.1973 18.0266 12.2023 18.0323 12.2079L18.0994 12.2745C18.3162 12.4916 18.9156 13.1038 20.7018 14.938C21.0493 15.2939 21.0433 15.865 20.6862 16.2125C20.3303 16.5624 19.7579 16.5516 19.4104 16.1957C19.4104 16.1957 16.9467 13.667 16.7711 13.4963C16.5848 13.3436 16.2854 13.2546 15.9908 13.2834C15.6914 13.3135 15.422 13.4566 15.2309 13.6887C12.4365 17.0782 12.4028 17.1107 12.3571 17.1552C11.3255 18.1676 9.66012 18.1508 8.64649 17.1167C8.64649 17.1167 7.52826 15.9816 7.50902 15.9588C7.23126 15.7015 6.73587 15.7183 6.43888 16.0321L4.5992 17.9716C4.42124 18.1592 4.18317 18.253 3.94509 18.253C3.72144 18.253 3.499 18.1712 3.32465 18.0053C2.96273 17.6638 2.9483 17.0915 3.29098 16.7319L5.12826 14.7925C6.101 13.7596 7.74228 13.7091 8.77996 14.683L9.93186 15.8518C10.2529 16.1764 10.7748 16.1824 11.097 15.865C11.2184 15.7219 13.8373 12.5416 13.8373 12.5416C14.3351 11.938 15.0373 11.5652 15.8176 11.4883C16.5992 11.4197 17.3579 11.647 17.9627 12.1436ZM7.88561 5.56581C9.54733 5.56701 10.8976 6.91852 10.8976 8.57663C10.8976 10.2372 9.54613 11.5887 7.88561 11.5887C6.22509 11.5887 4.87479 10.2372 4.87479 8.57663C4.87479 6.91611 6.22509 5.56581 7.88561 5.56581ZM7.88441 7.36942C7.21948 7.36942 6.6784 7.9105 6.6784 8.57663C6.6784 9.24277 7.21948 9.78505 7.88561 9.78505C8.55174 9.78505 9.09403 9.24277 9.09403 8.57663C9.09403 7.9117 8.55174 7.37062 7.88441 7.36942Z" fill="black" fill-opacity="0.46"/>
</svg>
