<svg width="14" height="14" viewBox="0 0 14 14" fill="none" xmlns="http://www.w3.org/2000/svg">
<path d="M7.04058 5.5708e-05C9.94805 0.0215366 12.5407 1.83262 13.5573 4.55271C14.574 7.27308 13.8031 10.3377 11.6198 12.2555C9.43686 14.1731 6.29506 14.5463 3.72252 13.1936L3.69045 13.1824C3.68545 13.1794 3.68464 13.1769 3.68357 13.1736L3.2058 12.9032C3.10849 12.8634 3.00066 12.857 2.93482 12.8736C2.43817 13.0522 1.93058 13.1988 1.41517 13.3126L1.3207 13.324C0.75331 13.3366 0.467429 12.9684 0.467429 12.4327L0.481108 12.3179C0.609954 11.785 0.771429 11.2605 0.955209 10.7749C0.983714 10.6829 0.974224 10.5835 0.925032 10.4913L0.796357 10.2404C-0.340982 8.06586 -0.255212 5.45551 1.02242 3.36007C2.29988 1.2649 4.58245 -0.00970937 7.04058 5.5708e-05ZM7.03385 0.976241L6.83724 0.979319C4.79846 1.03765 2.92137 2.12185 1.85637 3.86854C0.757173 5.67134 0.683388 7.91691 1.66364 9.79115L1.79028 10.0382C1.95873 10.3534 1.99397 10.7228 1.87872 11.0916C1.69963 11.5672 1.54994 12.0534 1.43049 12.5474L1.4966 12.2899L1.77291 12.2179C1.86776 12.1917 1.96284 12.1642 2.05842 12.1352L2.3469 12.0439L2.63993 11.9432C2.94948 11.858 3.27859 11.8777 3.6028 12.0113C3.67085 12.0441 3.75529 12.0897 3.86174 12.1498L4.15736 12.3195C4.16237 12.3208 4.16676 12.322 4.17011 12.323L4.16147 12.3218L4.36288 12.4227C6.48075 13.4453 9.00385 13.1446 10.8211 11.6526L10.9752 11.5217C12.8538 9.87146 13.517 7.235 12.6423 4.89464C11.7676 2.55403 9.53615 0.995272 7.03385 0.976241Z" fill="#200E32"/>
</svg>
