<svg width="12" height="12" viewBox="0 0 12 12" fill="none" xmlns="http://www.w3.org/2000/svg">
<path d="M11.8503 0.859375L2.59387 10.1133C2.79399 10.2108 3.01348 10.2621 3.23608 10.2632H4.82138C4.954 10.2629 5.08123 10.3156 5.17473 10.4097L6.03385 11.2683C6.49975 11.7374 7.13343 12.0015 7.79457 12.002C8.06754 12.0017 8.33864 11.957 8.59721 11.8696C9.48862 11.5773 10.137 10.8046 10.27 9.87592L11.9587 1.85445C12.0394 1.52021 12.001 1.16836 11.8503 0.859375Z" fill="white"/>
<path d="M10.1611 0.0387075L2.15909 1.72448C0.791827 1.91232 -0.164284 3.17299 0.0235552 4.54024C0.0977491 5.08019 0.346429 5.58111 0.731713 5.96661L1.59034 6.82524C1.68419 6.91907 1.73688 7.04637 1.73679 7.17908V8.76438C1.73793 8.98698 1.78919 9.2065 1.88672 9.40659L11.1416 0.150174C10.8375 0.00070854 10.491 -0.0386726 10.1611 0.0387075Z" fill="white"/>
</svg>
