<svg width="28" height="28" viewBox="0 0 28 28" fill="none" xmlns="http://www.w3.org/2000/svg">
<path d="M26.9745 10.5769L18.1253 1.72659C17.0301 0.634579 15.5466 0.0213623 14 0.0213623C12.4534 0.0213623 10.9699 0.634579 9.87467 1.72659L1.02551 10.5769C0.699343 10.901 0.440745 11.2866 0.26471 11.7114C0.088675 12.1361 -0.00129547 12.5916 1.40927e-05 13.0514V24.5046C1.40927e-05 25.4328 0.368763 26.3231 1.02514 26.9794C1.68152 27.6358 2.57175 28.0046 3.50001 28.0046H24.5C25.4282 28.0046 26.3185 27.6358 26.9749 26.9794C27.6312 26.3231 28 25.4328 28 24.5046V13.0514C28.0013 12.5916 27.9113 12.1361 27.7353 11.7114C27.5593 11.2866 27.3007 10.901 26.9745 10.5769ZM17.5 25.6712H10.5V21.0816C10.5 20.1533 10.8688 19.2631 11.5251 18.6067C12.1815 17.9503 13.0717 17.5816 14 17.5816C14.9283 17.5816 15.8185 17.9503 16.4749 18.6067C17.1312 19.2631 17.5 20.1533 17.5 21.0816V25.6712ZM25.6667 24.5046C25.6667 24.814 25.5437 25.1107 25.3249 25.3295C25.1062 25.5483 24.8094 25.6712 24.5 25.6712H19.8333V21.0816C19.8333 19.5345 19.2187 18.0507 18.1248 16.9568C17.0308 15.8628 15.5471 15.2482 14 15.2482C12.4529 15.2482 10.9692 15.8628 9.87521 16.9568C8.78125 18.0507 8.16667 19.5345 8.16667 21.0816V25.6712H3.50001C3.19059 25.6712 2.89385 25.5483 2.67505 25.3295C2.45626 25.1107 2.33335 24.814 2.33335 24.5046V13.0514C2.33443 12.7422 2.45723 12.4459 2.67518 12.2266L11.5243 3.37976C12.182 2.72517 13.0721 2.35769 14 2.35769C14.9279 2.35769 15.818 2.72517 16.4757 3.37976L25.3248 12.2301C25.5419 12.4485 25.6647 12.7434 25.6667 13.0514V24.5046Z" fill="black"/>
</svg>
