<svg width="14" height="15" viewBox="0 0 14 15" fill="none" xmlns="http://www.w3.org/2000/svg">
<path d="M12.9981 6.67812V11.7119H10.7655L10.6528 11.7245C8.58009 12.1859 7.20665 12.5186 6.52214 12.7246C5.61291 12.9982 5.27397 13.0651 4.65725 13.1044C4.196 13.1347 3.67212 12.9652 3.43339 12.7331C3.3015 12.6051 3.20276 12.342 3.16371 11.9341C3.15562 11.8486 3.12359 11.7667 3.07096 11.697C3.01833 11.6273 2.94704 11.5725 2.86456 11.5381C2.6811 11.4622 2.52857 11.3384 2.4011 11.1583C2.28321 10.9938 2.20658 10.6871 2.19258 10.2433C2.19012 10.1617 2.16589 10.0821 2.12218 10.0119C2.07847 9.94176 2.01673 9.88342 1.9428 9.8424C1.51397 9.60538 1.30177 9.33811 1.25756 9.02443C1.20893 8.67769 1.32682 8.28734 1.63555 7.84284C1.70798 7.73859 1.73496 7.61148 1.71074 7.48854C1.68653 7.3656 1.61302 7.25653 1.50587 7.18452C1.2104 6.98618 1.0483 6.71048 1.00777 6.31943C0.942934 5.69628 1.35924 5.2356 2.30163 5.14346C3.14097 5.06422 3.98841 5.13167 4.8024 5.3425C4.89474 5.36554 4.99205 5.36292 5.08288 5.33495C5.17371 5.30699 5.25429 5.25485 5.31512 5.18466C5.37596 5.11446 5.41453 5.02915 5.4263 4.93874C5.43807 4.84834 5.42254 4.75661 5.38155 4.67434C5.01313 3.93022 4.8083 3.31621 4.7604 2.84076C4.69777 2.20987 4.8503 1.75271 5.20692 1.37572C5.47733 1.09017 5.90985 0.927001 6.07195 0.960761C6.28562 1.00437 6.42488 1.12253 6.60614 1.53608C6.71298 1.78084 6.76456 1.98903 6.85298 2.47503C6.93771 2.93641 6.98413 3.1446 7.08065 3.41749C7.3717 4.24461 8.08568 5.10196 9.04428 5.69346C9.71612 6.10752 10.4442 6.43173 11.2083 6.65702C11.2561 6.67107 11.3057 6.67818 11.3557 6.67812H12.9981ZM13.029 12.6705C13.267 12.6768 13.4807 12.6262 13.6597 12.5066C13.8881 12.354 13.9957 12.1135 13.9979 11.8363L13.9957 6.68586C14.0208 6.41156 13.936 6.15977 13.7356 5.97268C13.5477 5.79685 13.3024 5.71386 13.043 5.71949H11.4331C10.7818 5.52141 10.1609 5.24187 9.58658 4.88815C8.81439 4.41129 8.24557 3.72766 8.02821 3.11154C7.95379 2.89914 7.914 2.7233 7.83884 2.30975C7.73716 1.75482 7.6738 1.4967 7.5279 1.16473C7.22581 0.474057 6.8294 0.136459 6.28268 0.0232228C5.7448 -0.0879032 4.96156 0.208198 4.46641 0.731475C3.91748 1.31102 3.67507 2.03615 3.76496 2.93219C3.80327 3.31762 3.91527 3.74876 4.09948 4.22913C3.4704 4.14162 2.83242 4.12839 2.19995 4.18974C0.721151 4.33393 -0.109247 5.25318 0.0115919 6.41508C0.0646429 6.91585 0.254744 7.34136 0.578208 7.67544C0.306321 8.17551 0.198009 8.66995 0.265796 9.15244C0.343899 9.70807 0.6681 10.1709 1.20745 10.5303C1.24945 11.0177 1.36661 11.4066 1.57439 11.6978C1.73811 11.933 1.95173 12.1329 2.20142 12.2844C2.281 12.7654 2.44826 13.1417 2.72162 13.4062C3.17477 13.8465 3.98453 14.1088 4.7243 14.061C5.42649 14.016 5.84206 13.9344 6.82203 13.639C7.46822 13.4442 8.80629 13.1206 10.823 12.6705H13.0297H13.029ZM11.7757 6.45939C11.7759 6.39646 11.7631 6.33412 11.738 6.27593C11.7129 6.21774 11.676 6.16485 11.6295 6.12029C11.5829 6.07573 11.5276 6.04038 11.4667 6.01626C11.4058 5.99213 11.3406 5.97972 11.2746 5.97972C11.2088 5.9799 11.1437 5.99246 11.083 6.01666C11.0223 6.04087 10.9672 6.07625 10.9208 6.12079C10.8744 6.16533 10.8377 6.21816 10.8127 6.27626C10.7877 6.33435 10.7749 6.39658 10.7751 6.45939V11.8596C10.775 11.9224 10.7878 11.9846 10.8129 12.0426C10.838 12.1007 10.8748 12.1535 10.9213 12.1979C10.9678 12.2424 11.0229 12.2777 11.0837 12.3018C11.1444 12.326 11.2096 12.3384 11.2754 12.3385C11.3412 12.3384 11.4063 12.326 11.4671 12.3018C11.5278 12.2777 11.583 12.2424 11.6294 12.1979C11.6759 12.1535 11.7127 12.1007 11.7378 12.0426C11.7629 11.9846 11.7758 11.9224 11.7757 11.8596V6.45939Z" fill="black"/>
</svg>
