<svg width="28" height="28" viewBox="0 0 28 28" fill="none" xmlns="http://www.w3.org/2000/svg">
<path d="M23.3333 0H4.66667C3.42899 0 2.242 0.491665 1.36684 1.36684C0.491665 2.242 0 3.42899 0 4.66667L0 18.6667C0 19.9043 0.491665 21.0913 1.36684 21.9665C2.242 22.8417 3.42899 23.3333 4.66667 23.3333H8.05L13.2428 27.7235C13.4535 27.9018 13.7205 27.9996 13.9965 27.9996C14.2725 27.9996 14.5395 27.9018 14.7502 27.7235L19.95 23.3333H23.3333C24.571 23.3333 25.758 22.8417 26.6332 21.9665C27.5083 21.0913 28 19.9043 28 18.6667V4.66667C28 3.42899 27.5083 2.242 26.6332 1.36684C25.758 0.491665 24.571 0 23.3333 0ZM25.6667 18.6667C25.6667 19.2855 25.4208 19.879 24.9832 20.3166C24.5457 20.7542 23.9522 21 23.3333 21H19.95C19.3985 21.0002 18.8649 21.1957 18.4438 21.5518L14 25.305L9.5585 21.5518C9.13682 21.1952 8.6023 20.9996 8.05 21H4.66667C4.04783 21 3.45434 20.7542 3.01675 20.3166C2.57917 19.879 2.33333 19.2855 2.33333 18.6667V4.66667C2.33333 4.04783 2.57917 3.45434 3.01675 3.01675C3.45434 2.57917 4.04783 2.33333 4.66667 2.33333H23.3333C23.9522 2.33333 24.5457 2.57917 24.9832 3.01675C25.4208 3.45434 25.6667 4.04783 25.6667 4.66667V18.6667Z" fill="#5F5F5F"/>
</svg>
