<svg width="28" height="30" viewBox="0 0 28 30" fill="none" xmlns="http://www.w3.org/2000/svg">
<path d="M27.8658 19.8346L24.6833 8.36402C24.0037 5.91032 22.5229 3.75443 20.4766 2.23948C18.4302 0.724528 15.936 -0.0624236 13.3908 0.00387048C10.8456 0.0701646 8.39565 0.985895 6.43097 2.60532C4.46628 4.22474 3.09973 6.45479 2.54879 8.94055L0.0872295 20.0182C-0.0318794 20.5549 -0.0289741 21.1114 0.095731 21.6468C0.220436 22.1822 0.463759 22.6828 0.807747 23.1116C1.15174 23.5404 1.58761 23.8865 2.08322 24.1244C2.57882 24.3623 3.12151 24.4858 3.67125 24.486H8.08639C8.36733 25.8695 9.11793 27.1134 10.211 28.0068C11.3041 28.9002 12.6725 29.3883 14.0842 29.3883C15.496 29.3883 16.8643 28.9002 17.9574 28.0068C19.0505 27.1134 19.8011 25.8695 20.0821 24.486H24.3295C24.8952 24.4857 25.4531 24.3548 25.9598 24.1034C26.4665 23.852 26.9083 23.487 27.2507 23.0368C27.5931 22.5865 27.8269 22.0633 27.9338 21.5078C28.0407 20.9524 28.0166 20.3798 27.8658 19.8346ZM14.0842 26.9341C13.3275 26.9309 12.5901 26.6941 11.9731 26.2558C11.3561 25.8176 10.8896 25.1995 10.6373 24.486H17.5312C17.2789 25.1995 16.8124 25.8176 16.1953 26.2558C15.5783 26.6941 14.841 26.9309 14.0842 26.9341ZM25.3026 21.5544C25.1885 21.7058 25.0404 21.8283 24.8704 21.9123C24.7004 21.9963 24.513 22.0393 24.3234 22.0379H3.67125C3.48796 22.0378 3.30702 21.9967 3.14178 21.9173C2.97654 21.838 2.83122 21.7226 2.71655 21.5796C2.60188 21.4367 2.52079 21.2697 2.47925 21.0912C2.43772 20.9127 2.4368 20.7271 2.47657 20.5482L4.93814 9.47056C5.37188 7.51968 6.44532 5.76978 7.9878 4.49903C9.53029 3.22827 11.4533 2.50961 13.4511 2.45727C15.449 2.40493 17.4069 3.02193 19.0139 4.21017C20.6208 5.39842 21.7843 7.08972 22.3196 9.01522L25.5022 20.4858C25.5541 20.6672 25.5632 20.8582 25.5285 21.0436C25.4939 21.2291 25.4166 21.404 25.3026 21.5544Z" fill="#5F5F5F"/>
</svg>
