<svg width="12" height="12" viewBox="0 0 12 12" fill="none" xmlns="http://www.w3.org/2000/svg">
<g clip-path="url(#clip0_425_80)">
<path d="M0.586 9.5595C0.210901 9.93449 0.000113275 10.4431 0 10.9735L0 12H1.0265C1.55689 11.9999 2.06551 11.7891 2.4405 11.414L9.112 4.7425L7.2575 2.888L0.586 9.5595Z" fill="white"/>
<path d="M11.5725 0.4275C11.4507 0.305618 11.3061 0.208928 11.147 0.142958C10.9878 0.0769889 10.8173 0.0430336 10.645 0.0430336C10.4727 0.0430336 10.3021 0.0769889 10.143 0.142958C9.98382 0.208928 9.83923 0.305618 9.71748 0.4275L7.96448 2.181L9.81898 4.0355L11.5725 2.2825C11.6944 2.16074 11.7911 2.01616 11.857 1.85701C11.923 1.69787 11.9569 1.52728 11.9569 1.355C11.9569 1.18272 11.923 1.01213 11.857 0.852986C11.7911 0.693839 11.6944 0.549255 11.5725 0.4275Z" fill="white"/>
</g>
<defs>
<clipPath id="clip0_425_80">
<rect width="12" height="12" fill="white"/>
</clipPath>
</defs>
</svg>
