<svg width="32" height="32" viewBox="0 0 32 32" fill="none" xmlns="http://www.w3.org/2000/svg">
<path d="M30.8258 1.17536C30.3477 0.691466 29.7529 0.339057 29.0989 0.15218C28.4448 -0.0346964 27.7536 -0.0497229 27.092 0.108552L5.75586 4.60248C4.52713 4.77099 3.36986 5.27921 2.41435 6.06989C1.45885 6.86058 0.743082 7.90233 0.347645 9.07782C-0.047791 10.2533 -0.107185 11.5159 0.176152 12.7233C0.45949 13.9307 1.0743 15.0351 1.95136 15.912L4.24233 18.2016C4.36632 18.3256 4.46466 18.4728 4.5317 18.6348C4.59874 18.7968 4.63318 18.9704 4.63305 19.1457V23.3703C4.63599 23.9643 4.77272 24.55 5.0331 25.0839L5.02243 25.0932L5.0571 25.1279C5.44784 25.9135 6.08601 26.5488 6.87334 26.9361L6.90801 26.9708L6.91735 26.9601C7.45123 27.2205 8.03692 27.3572 8.63091 27.3602H12.8555C13.2089 27.3599 13.548 27.4999 13.7983 27.7495L16.0879 30.0392C16.702 30.6601 17.4329 31.1533 18.2386 31.4904C19.0442 31.8276 19.9085 32.0019 20.7818 32.0034C21.5096 32.0025 22.2324 31.8836 22.9221 31.6514C24.0869 31.2689 25.1216 30.5686 25.9095 29.6294C26.6974 28.6902 27.2072 27.5495 27.3814 26.336L31.882 4.95319C32.0485 4.28596 32.0387 3.58691 31.8535 2.92461C31.6684 2.26231 31.3142 1.65952 30.8258 1.17536ZM6.13058 16.3187L3.83827 14.0291C3.3045 13.5081 2.93038 12.8458 2.75985 12.1197C2.58931 11.3936 2.62942 10.6339 2.87548 9.92985C3.11404 9.20752 3.55504 8.5689 4.14604 8.08996C4.73704 7.61101 5.45317 7.31189 6.20925 7.22816L27.3334 2.78091L7.2974 22.8196V19.1457C7.29942 18.6208 7.19733 18.1006 6.99705 17.6154C6.79677 17.1301 6.50227 16.6894 6.13058 16.3187ZM24.761 25.88C24.6586 26.6165 24.353 27.3099 23.8784 27.8824C23.4038 28.4549 22.779 28.8837 22.0742 29.1209C21.3694 29.358 20.6124 29.3939 19.8883 29.2247C19.1642 29.0555 18.5016 28.6878 17.9748 28.1629L15.6812 25.8693C15.311 25.497 14.8706 25.2019 14.3856 25.0009C13.9005 24.7999 13.3805 24.6971 12.8555 24.6985H9.18165L29.2203 4.66649L24.761 25.88Z" fill="white"/>
</svg>
