<svg width="21" height="20" viewBox="0 0 21 20" fill="none" xmlns="http://www.w3.org/2000/svg">
<path d="M1.19813 20L6.40951 14.7886C8.06514 16.1423 10.1777 16.8079 12.3103 16.6477C14.4429 16.4874 16.4324 15.5137 17.8671 13.9278C19.3019 12.3418 20.0722 10.2651 20.0188 8.1272C19.9653 5.98926 19.0922 3.95365 17.5799 2.44143C16.0677 0.929204 14.0321 0.0560622 11.8942 0.00260702C9.75622 -0.0508482 7.67952 0.719473 6.09361 2.15423C4.5077 3.589 3.53392 5.57843 3.37369 7.71102C3.21346 9.84362 3.87903 11.9562 5.23274 13.6119L0.0213616 18.8232L1.19813 20ZM5.0147 8.34887C5.0147 7.03209 5.40518 5.74487 6.13674 4.65C6.86831 3.55514 7.90811 2.70179 9.12467 2.19788C10.3412 1.69397 11.6799 1.56212 12.9714 1.81901C14.2628 2.0759 15.4491 2.71 16.3803 3.64111C17.3114 4.57221 17.9455 5.75852 18.2024 7.05C18.4592 8.34149 18.3274 9.68015 17.8235 10.8967C17.3196 12.1132 16.4662 13.1531 15.3714 13.8846C14.2765 14.6162 12.9893 15.0067 11.6725 15.0067C9.90734 15.0047 8.21506 14.3026 6.96691 13.0544C5.71877 11.8063 5.01668 10.114 5.0147 8.34887Z" fill="black"/>
</svg>
