<svg width="20" height="20" viewBox="0 0 20 20" fill="none" xmlns="http://www.w3.org/2000/svg">
<path d="M19.2661 0.7346C18.9673 0.432166 18.5956 0.21191 18.1868 0.0951126C17.778 -0.0216852 17.346 -0.0310768 16.9325 0.0678453L3.59741 2.87655C2.82946 2.98187 2.10616 3.2995 1.50897 3.79368C0.911784 4.28786 0.464426 4.93895 0.217278 5.67364C-0.0298694 6.40833 -0.0669906 7.19742 0.110095 7.95207C0.287181 8.70671 0.67144 9.39693 1.2196 9.94498L2.65145 11.376C2.72895 11.4535 2.79041 11.5455 2.83231 11.6467C2.87422 11.748 2.89574 11.8565 2.89565 11.9661V14.6064C2.89749 14.9777 2.98295 15.3437 3.14569 15.6774L3.13902 15.6832L3.16069 15.7049C3.4049 16.1959 3.80376 16.593 4.29584 16.8351L4.31751 16.8567L4.32334 16.8501C4.65702 17.0128 5.02308 17.0983 5.39432 17.1001H8.03467C8.25557 17.0999 8.46751 17.1875 8.62391 17.3435L10.0549 18.7745C10.4388 19.1626 10.8956 19.4708 11.3991 19.6815C11.9026 19.8922 12.4428 20.0012 12.9887 20.0021C13.4435 20.0016 13.8953 19.9273 14.3263 19.7821C15.0543 19.5431 15.701 19.1054 16.1934 18.5184C16.6859 17.9314 17.0045 17.2184 17.1134 16.46L19.9262 3.09575C20.0303 2.67872 20.0242 2.24182 19.9084 1.82788C19.7927 1.41394 19.5714 1.0372 19.2661 0.7346ZM3.83161 10.1992L2.39892 8.76816C2.06531 8.44259 1.83149 8.0286 1.7249 7.5748C1.61832 7.121 1.64339 6.64621 1.79717 6.20616C1.94627 5.7547 2.2219 5.35557 2.59128 5.05622C2.96065 4.75688 3.40823 4.56993 3.88078 4.5176L17.0834 1.73807L4.56087 14.2622V11.9661C4.56214 11.638 4.49833 11.3129 4.37316 11.0096C4.24798 10.7063 4.06392 10.4309 3.83161 10.1992ZM15.4756 16.175C15.4117 16.6353 15.2206 17.0687 14.924 17.4265C14.6274 17.7843 14.2369 18.0523 13.7964 18.2005C13.3559 18.3487 12.8828 18.3712 12.4302 18.2654C11.9776 18.1597 11.5635 17.9299 11.2343 17.6018L9.80073 16.1683C9.56934 15.9356 9.29412 15.7512 8.99098 15.6256C8.68784 15.5 8.3628 15.4357 8.03467 15.4365H5.73853L18.2627 2.91655L15.4756 16.175Z" fill="white"/>
</svg>
