<svg width="14" height="14" viewBox="0 0 14 14" fill="none" xmlns="http://www.w3.org/2000/svg">
<path d="M13.9667 1.6817L13.9404 1.7829L10.6056 13.0105C10.2746 14.124 8.82285 14.3465 8.16723 13.4279L8.10439 13.3323L5.30761 8.69887L0.658807 5.83741C-0.329363 5.22908 -0.167489 3.75972 0.887532 3.36267L0.996002 3.32661L12.2359 0.056035C13.2519 -0.238016 14.1904 0.67257 13.9667 1.6817ZM12.5883 1.07987L12.536 1.09022L1.29652 4.36068C1.06256 4.42859 1.00508 4.72918 1.17582 4.88473L1.22329 4.92037L5.6199 7.62632L9.38552 3.83619C9.57604 3.6444 9.8751 3.62602 10.0864 3.78172L10.147 3.83365C10.3388 4.02417 10.3571 4.32323 10.2014 4.53454L10.1495 4.5951L6.37872 8.39017L9.02635 12.7758C9.15238 12.9847 9.44728 12.9638 9.55151 12.7589L9.57339 12.7038L12.9082 1.4758C12.9728 1.25927 12.7956 1.05761 12.5883 1.07987Z" fill="#200E32"/>
</svg>
